<svg xmlns="http://www.w3.org/2000/svg" viewBox="0 0 681.64 159.29"><defs><style>.cls-1{fill:#f21313;}.cls-2{fill:#262626;}</style></defs><title>Asset 1</title><g id="Layer_2" data-name="Layer 2"><g id="Layer_3" data-name="Layer 3"><path class="cls-1" d="M131.39,109.51h22.1a79.65,79.65,0,1,1,0-59.73h-22.1a59.74,59.74,0,1,0,0,59.73Z"/><path class="cls-1" d="M107.81,89.6h20.62a49.78,49.78,0,1,1,0-19.91H107.81a29.88,29.88,0,0,0-56.33,0H79.64a10,10,0,1,1,0,19.91H51.48a29.88,29.88,0,0,0,56.33,0Z"/><path class="cls-2" d="M262,52.67,251.12,64a25,25,0,0,0-18.87-8.11,22.22,22.22,0,0,0-16.36,6.63A23.15,23.15,0,0,0,209.4,79.2a23.12,23.12,0,0,0,6.49,16.66,22.19,22.19,0,0,0,16.36,6.64,25,25,0,0,0,18.87-8.11L262,105.74c-8,8.55-17.84,12.83-29.78,12.83-11.35,0-20.93-3.69-28.75-11.21s-11.65-17-11.65-28.16,3.84-20.49,11.65-28,17.4-11.35,28.75-11.35C244.19,39.84,254.07,44.11,262,52.67Z"/><path class="cls-2" d="M268.37,79.4c0-11.9,3.72-21.42,11-28.7s16.81-10.86,28.26-10.86c10.85,0,19.78,3.57,26.62,10.86,7,7.28,10.41,16.21,10.41,26.91,0,2.23-.15,4.32-.3,6.25h-58.3c.6,11.9,9.37,19.63,22.61,19.63a27.58,27.58,0,0,0,20.22-8.63l10.71,10.42c-8.48,8.92-18.89,13.38-31.53,13.38-11.75,0-21.41-3.57-28.7-10.56s-11-16.36-11-28.11Zm58.15-8a14.56,14.56,0,0,0-5.65-11.45A19.14,19.14,0,0,0,307.64,55a23,23,0,0,0-14.43,4.76,16.29,16.29,0,0,0-6.69,11.6Z"/><path class="cls-2" d="M355.81,118.66V41.31h17.54V51.93c3.54-7.23,11.94-12.09,22.56-12.09,17.69,0,28.16,11.35,28.16,29.78v49h-17.7V72.13c0-10.18-5.89-16.52-15.77-16.52-10,0-17.25,7.08-17.25,17.25v45.8Z"/><path class="cls-1" d="M437.18,79.4c0-11.9,3.72-21.42,11-28.7,7.44-7.29,16.81-10.86,28.26-10.86,10.85,0,19.78,3.57,26.62,10.86,7,7.28,10.41,16.21,10.41,26.91,0,2.23-.15,4.32-.3,6.25h-58.3c.6,11.9,9.37,19.63,22.61,19.63a27.6,27.6,0,0,0,20.23-8.63l10.7,10.42c-8.47,8.92-18.88,13.38-31.52,13.38-11.75,0-21.42-3.57-28.71-10.56s-11-16.36-11-28.11Zm58.15-8a14.59,14.59,0,0,0-5.65-11.45A19.19,19.19,0,0,0,476.44,55,23,23,0,0,0,462,59.77a16.32,16.32,0,0,0-6.69,11.6Z"/><path class="cls-1" d="M523.15,118.66V41.31h17.54V51.93c3.54-7.23,11.94-12.09,22.56-12.09,17.69,0,28.16,11.35,28.16,29.78v49H573.72V72.13c0-10.18-5.9-16.52-15.78-16.52s-17.25,7.08-17.25,17.25v45.8Z"/><path class="cls-1" d="M664,52.22V41.46h17.69v61.92c0,17.84-2.51,28.75-12.53,36.57-7.08,5.45-15.78,8.25-26.25,8.25-13.86,0-25.8-3.54-36-10.76l8.55-13.12A45.07,45.07,0,0,0,641,132.43q10.39,0,16.36-4.43c4.72-3.39,7.08-9.73,7.08-18.87v-3.68c-3.54,6.33-12.39,10.91-24.18,10.91a36.18,36.18,0,0,1-26.54-10.91c-7.08-7.23-10.61-16.37-10.61-27.13s3.53-19.9,10.76-27.28a35,35,0,0,1,26.39-11.2C652.45,39.84,661.44,45,664,52.22Zm-5.31,42.17a21.59,21.59,0,0,0,6.63-16.07,21.24,21.24,0,0,0-6.63-15.92,22,22,0,0,0-16.07-6.49,21.35,21.35,0,0,0-15.78,6.49,22,22,0,0,0-6.19,15.92,22.41,22.41,0,0,0,6.19,16.07,21.26,21.26,0,0,0,15.78,6.34A21.92,21.92,0,0,0,658.64,94.39Z"/></g></g></svg>