<svg xmlns="http://www.w3.org/2000/svg" width="260" height="88.06" viewBox="0 0 260 88.06">
  <g id="Group_141" data-name="Group 141" transform="translate(-143 -6278)">
    <path id="Path_81" data-name="Path 81" d="M360.636,515.191h12.218a44.03,44.03,0,1,1,0-33.022H360.636a33.022,33.022,0,1,0,0,33.022Z" transform="translate(-145 5823.35)" fill="#fff"/>
    <path id="Path_82" data-name="Path 82" d="M363.094,519.679h11.4a27.519,27.519,0,1,1,0-11.008h-11.4a16.515,16.515,0,0,0-31.139,0h15.57a5.5,5.5,0,0,1,0,11.008h-15.57a16.515,16.515,0,0,0,31.139,0Z" transform="translate(-160.495 5807.855)" fill="#fff"/>
    <path id="Path_83" data-name="Path 83" d="M492.7,490.461l-2.587,2.222A7.391,7.391,0,0,0,484.3,490.1a7.534,7.534,0,1,0,5.874,12.418l2.557,2.222a11,11,0,0,1-8.43,3.865,11.243,11.243,0,0,1-8-3.1,11.094,11.094,0,0,1,0-15.7,11.141,11.141,0,0,1,8-3.135A10.725,10.725,0,0,1,492.7,490.461Z" transform="translate(-234.583 5807.855)" fill="#fff"/>
    <path id="Path_84" data-name="Path 84" d="M513.631,506.021a7.674,7.674,0,0,1,8.035-8.1,7.134,7.134,0,0,1,5.448,2.222,7.625,7.625,0,0,1,2.131,5.508c0,.457-.03.883-.061,1.278H517.252c.122,2.435,1.918,4.017,4.626,4.017a5.644,5.644,0,0,0,4.139-1.765l2.191,2.13a8.509,8.509,0,0,1-6.452,2.739,8.175,8.175,0,0,1-5.874-2.16,7.607,7.607,0,0,1-2.252-5.753Zm11.9-1.644a2.982,2.982,0,0,0-1.156-2.343,3.929,3.929,0,0,0-2.709-1,4.717,4.717,0,0,0-2.952.974,3.336,3.336,0,0,0-1.37,2.374Z" transform="translate(-254.234 5802.399)" fill="#fff"/>
    <path id="Path_85" data-name="Path 85" d="M548.616,513.8V498.465h3.622v2.191a4.991,4.991,0,0,1,4.656-2.5c3.652,0,5.813,2.344,5.813,6.148v9.5h-3.652v-8.978a3.08,3.08,0,0,0-3.257-3.408,3.42,3.42,0,0,0-3.561,3.561V513.8Z" transform="translate(-271.171 5802.285)" fill="#fff"/>
    <path id="Path_86" data-name="Path 86" d="M582.04,508.577V496.556h-1.978v-3.318h1.978v-5.874h3.652v5.874h3.318v3.318h-3.318v12.021Z" transform="translate(-286.395 5807.513)" fill="#fff"/>
    <path id="Path_87" data-name="Path 87" d="M601.713,513.8V498.465h3.622v2.283a4.733,4.733,0,0,1,4.565-2.587,5.665,5.665,0,0,1,1.1.091v3.531a7.762,7.762,0,0,0-1.521-.152,3.844,3.844,0,0,0-4.139,4.108V513.8Z" transform="translate(-296.877 5802.285)" fill="#fff"/>
    <path id="Path_88" data-name="Path 88" d="M634.048,500.659v-2.222H637.7v15.339h-3.652v-2.221c-.517,1.491-2.374,2.556-4.9,2.556a7.376,7.376,0,0,1-5.478-2.282,8,8,0,0,1-2.191-5.722,7.876,7.876,0,0,1,2.191-5.691,7.29,7.29,0,0,1,5.478-2.313C631.674,498.1,633.53,499.167,634.048,500.659Zm-1.1,8.8a4.777,4.777,0,0,0,0-6.7,4.547,4.547,0,0,0-3.318-1.339,4.409,4.409,0,0,0-3.256,1.339,5.024,5.024,0,0,0,0,6.7,4.407,4.407,0,0,0,3.256,1.339A4.545,4.545,0,0,0,632.952,509.454Z" transform="translate(-306.446 5802.314)" fill="#fff"/>
    <path id="Path_89" data-name="Path 89" d="M659.059,508.577V487.364h3.652v21.213Z" transform="translate(-324.64 5807.513)" fill="#fff"/>
    <path id="Path_90" data-name="Path 90" d="M472.992,562.049V540.48H485.57v3.5h-9.037v5.137H485v3.5h-8.47v5.941h9.235v3.5Z" transform="translate(-234.56 5781.798)" fill="#fff"/>
    <path id="Path_91" data-name="Path 91" d="M503.937,567.363v-15.6h3.683v2.228a5.075,5.075,0,0,1,4.735-2.538c3.713,0,5.91,2.383,5.91,6.251v9.655h-3.713v-9.129a3.132,3.132,0,0,0-3.311-3.466,3.477,3.477,0,0,0-3.62,3.62v8.975Z" transform="translate(-249.541 5776.483)" fill="#fff"/>
    <path id="Path_92" data-name="Path 92" d="M549.231,553.893v-2.259h3.714v13c0,3.744-.526,6.035-2.63,7.675a8.744,8.744,0,0,1-5.508,1.733,12.666,12.666,0,0,1-7.551-2.259l1.794-2.754a9.451,9.451,0,0,0,5.354,1.7,5.658,5.658,0,0,0,3.435-.928c.99-.712,1.485-2.042,1.485-3.961v-.774c-.743,1.33-2.6,2.29-5.075,2.29a7.586,7.586,0,0,1-5.57-2.29,8.387,8.387,0,0,1,.031-11.419,7.346,7.346,0,0,1,5.539-2.352C546.818,551.294,548.705,552.377,549.231,553.893Zm-1.114,8.85a4.53,4.53,0,0,0,1.393-3.373,4.462,4.462,0,0,0-1.393-3.342,4.621,4.621,0,0,0-3.373-1.361,4.48,4.48,0,0,0-3.311,1.361,4.623,4.623,0,0,0-1.3,3.342,4.7,4.7,0,0,0,1.3,3.373,4.454,4.454,0,0,0,3.311,1.331A4.6,4.6,0,0,0,548.117,562.744Z" transform="translate(-265.282 5776.562)" fill="#fff"/>
    <path id="Path_93" data-name="Path 93" d="M573.943,542.2a2.213,2.213,0,1,1,2.228,2.2A2.193,2.193,0,0,1,573.943,542.2Zm.371,19.62v-15.6h3.713v15.6Z" transform="translate(-283.433 5782.03)" fill="#fff"/>
    <path id="Path_94" data-name="Path 94" d="M588.22,567.363v-15.6H591.9v2.228a5.074,5.074,0,0,1,4.735-2.538c3.713,0,5.91,2.383,5.91,6.251v9.655h-3.713v-9.129a3.132,3.132,0,0,0-3.311-3.466,3.477,3.477,0,0,0-3.62,3.62v8.975Z" transform="translate(-290.345 5776.483)" fill="#fff"/>
    <path id="Path_95" data-name="Path 95" d="M620.734,558.729A7.8,7.8,0,0,1,628.9,550.5a7.254,7.254,0,0,1,5.539,2.259,7.75,7.75,0,0,1,2.166,5.6c0,.464-.031.9-.062,1.3h-12.13c.123,2.476,1.949,4.085,4.7,4.085a5.741,5.741,0,0,0,4.209-1.795l2.228,2.166A8.653,8.653,0,0,1,629,566.9a8.31,8.31,0,0,1-5.973-2.2,7.736,7.736,0,0,1-2.29-5.849Zm12.1-1.671a3.032,3.032,0,0,0-1.176-2.383,3.994,3.994,0,0,0-2.754-1.021,4.8,4.8,0,0,0-3,.99,3.389,3.389,0,0,0-1.392,2.414Z" transform="translate(-306.086 5776.948)" fill="#fff"/>
    <path id="Path_96" data-name="Path 96" d="M654.988,558.729a7.8,7.8,0,0,1,8.169-8.231,7.254,7.254,0,0,1,5.539,2.259,7.75,7.75,0,0,1,2.166,5.6c0,.464-.03.9-.061,1.3H658.67c.124,2.476,1.949,4.085,4.7,4.085a5.74,5.74,0,0,0,4.208-1.795l2.228,2.166a8.653,8.653,0,0,1-6.56,2.785,8.311,8.311,0,0,1-5.973-2.2,7.736,7.736,0,0,1-2.289-5.849Zm12.1-1.671a3.033,3.033,0,0,0-1.176-2.383,4,4,0,0,0-2.754-1.021,4.794,4.794,0,0,0-3,.99,3.394,3.394,0,0,0-1.393,2.414Z" transform="translate(-322.669 5776.948)" fill="#fff"/>
    <path id="Path_97" data-name="Path 97" d="M690.561,567.363v-15.6h3.682v2.321a4.813,4.813,0,0,1,4.642-2.63,5.768,5.768,0,0,1,1.114.093v3.59a7.942,7.942,0,0,0-1.548-.155,3.908,3.908,0,0,0-4.208,4.178v8.2Z" transform="translate(-339.891 5776.483)" fill="#fff"/>
    <path id="Path_98" data-name="Path 98" d="M713.236,542.2a2.213,2.213,0,1,1,2.228,2.2A2.193,2.193,0,0,1,713.236,542.2Zm.371,19.62v-15.6h3.713v15.6Z" transform="translate(-350.868 5782.03)" fill="#fff"/>
    <path id="Path_99" data-name="Path 99" d="M727.513,567.363v-15.6H731.2v2.228a5.074,5.074,0,0,1,4.735-2.538c3.713,0,5.91,2.383,5.91,6.251v9.655h-3.713v-9.129a3.132,3.132,0,0,0-3.311-3.466,3.477,3.477,0,0,0-3.62,3.62v8.975Z" transform="translate(-357.78 5776.483)" fill="#fff"/>
    <path id="Path_100" data-name="Path 100" d="M772.808,553.893v-2.259h3.713v13c0,3.744-.526,6.035-2.63,7.675a8.743,8.743,0,0,1-5.508,1.733,12.666,12.666,0,0,1-7.551-2.259l1.795-2.754a9.448,9.448,0,0,0,5.354,1.7,5.656,5.656,0,0,0,3.435-.928c.99-.712,1.485-2.042,1.485-3.961v-.774c-.742,1.33-2.6,2.29-5.075,2.29a7.588,7.588,0,0,1-5.57-2.29,8.387,8.387,0,0,1,.031-11.419,7.347,7.347,0,0,1,5.539-2.352C770.394,551.294,772.281,552.377,772.808,553.893Zm-1.114,8.85a4.528,4.528,0,0,0,1.393-3.373,4.46,4.46,0,0,0-1.393-3.342,4.621,4.621,0,0,0-3.373-1.361,4.48,4.48,0,0,0-3.311,1.361,4.622,4.622,0,0,0-1.3,3.342,4.7,4.7,0,0,0,1.3,3.373,4.454,4.454,0,0,0,3.311,1.331A4.6,4.6,0,0,0,771.693,562.744Z" transform="translate(-373.521 5776.562)" fill="#fff"/>
  </g>
</svg>
